# xmcd CD database file
#
# Track frame offsets:
#	150
#	58364
#	74256
#	109717
#	126909
#	139136
#	162387
#	190054
#	235437
#	260098
#	284237
#	317322
#
# Disc length: 4481 seconds
#
# Revision: 0
# Processed by: cddbd v1.5.2PL0 Copyright (c) Steve Scherf et al.
# Submitted via: jetAudio 7
#
DISCID=c0117f0c
DTITLE=Billy Price - Sworn Testimony: The Billy Price Band Live - Disc 
DTITLE=Two
DYEAR=1900
DGENRE=Blues
TTITLE0=Can I Change My Mind - Is It Something You've Got?
TTITLE1=Do What You Think Is Best
TTITLE2=Last Two Dollars
TTITLE3=In The Room Next to the Room
TTITLE4=I Want to Take You Home
TTITLE5=I Know It's Your Party (I Just Came Here to Dance)
TTITLE6=Full of Fire
TTITLE7=Open House at My House
TTITLE8=You Left the Water Running
TTITLE9=Mother-in-Law Blues
TTITLE10=Nothing Left
TTITLE11=Strange Man
EXTD=Copyright 2002
EXTT0=
EXTT1=
EXTT2=
EXTT3=
EXTT4=
EXTT5=
EXTT6=
EXTT7=
EXTT8=
EXTT9=
EXTT10=
EXTT11=
PLAYORDER=
